<svg width="130" height="122" viewBox="0 0 130 122" fill="none" xmlns="http://www.w3.org/2000/svg">
<path fill-rule="evenodd" clip-rule="evenodd" d="M65.0002 20.3332C41.0678 20.3332 21.6668 38.5403 21.6668 60.9998C21.6668 71.6703 26.0438 81.3834 33.2151 88.6417C33.4859 87.801 33.846 86.9753 34.3157 86.1871C35.9082 83.5151 37.9171 81.0443 40.3006 78.8595C42.6927 76.6669 45.3915 74.8268 48.3024 73.373C43.869 69.3904 41.0973 63.8244 41.0973 57.611C41.0973 45.3331 51.92 35.5832 65.0002 35.5832C78.0803 35.5832 88.903 45.3331 88.903 57.611C88.903 63.8244 86.1313 69.3904 81.6979 73.373C84.6088 74.8268 87.3076 76.6669 89.6997 78.8595C92.0833 81.0443 94.0921 83.5151 95.6846 86.1871C96.1544 86.9753 96.5145 87.801 96.7852 88.6417C103.956 81.3834 108.333 71.6703 108.333 60.9998C108.333 38.5403 88.9325 20.3332 65.0002 20.3332ZM86.3479 96.3985C86.5582 95.3831 86.6636 94.43 86.6668 93.5855C86.672 92.1902 86.3996 91.435 86.2297 91.1499C85.1433 89.3271 83.7689 87.6347 82.1302 86.1326C77.6083 81.9879 71.4488 79.6387 65.0002 79.6387C58.5515 79.6387 52.392 81.9879 47.8702 86.1326C46.2314 87.6347 44.857 89.3271 43.7706 91.1499C43.6007 91.435 43.3284 92.1902 43.3336 93.5855C43.3367 94.43 43.4421 95.3831 43.6524 96.3985C49.95 99.7515 57.2299 101.666 65.0002 101.666C72.7704 101.666 80.0503 99.7515 86.3479 96.3985ZM65.0002 69.4721C72.3393 69.4721 78.0697 64.0494 78.0697 57.611C78.0697 51.1725 72.3393 45.7498 65.0002 45.7498C57.661 45.7498 51.9306 51.1725 51.9306 57.611C51.9306 64.0494 57.661 69.4721 65.0002 69.4721ZM10.8335 60.9998C10.8335 32.9254 35.0847 10.1665 65.0002 10.1665C94.9156 10.1665 119.167 32.9254 119.167 60.9998C119.167 79.0826 109.102 94.9556 93.9684 103.96C85.5874 108.947 75.6447 111.833 65.0002 111.833C54.3556 111.833 44.413 108.947 36.0319 103.96C20.8984 94.9556 10.8335 79.0826 10.8335 60.9998Z" fill="white"/>
</svg>
